# xmcd CD database file
#
# Track frame offsets:
#	151
#	17364
#	27169
#	52021
#	77490
#	101854
#	119865
#	142994
#	167778
#	178524
#	195846
#	214157
#	237980
#	252540
#	271331
#	298228
#	319641
#	336473
#
# Disc length: 4782 seconds
#
# Revision: 0
# Processed by: cddbd v1.5.2PL0 Copyright (c) Steve Scherf et al.
# Submitted via: CDex 1.51
#
DISCID=0c12ac12
DTITLE=Various Artist - TUXPAN AUDIO 36
DYEAR=2009
DGENRE=Salsa
TTITLE0=Back on the Chain Gang - Danny Carlos
TTITLE1=Eu e a Brisa - Dario Lopes
TTITLE2=Slow Down - Jazzy Pecada
TTITLE3=The Doctor - Fattburger
TTITLE4=Samba para Bean - Coleman Hawkins
TTITLE5=Zero Zero - De-Phazz
TTITLE6=Whispering Water - Interlude
TTITLE7=Saravá - Marc Antoine
TTITLE8=All the Things You Are - 3 na Bossa
TTITLE9=Dans Less Rues de Barcelone - Camino del Sol
TTITLE10=Everybody is got to learn something - Tereza
TTITLE11=Sweet Memories - Gota
TTITLE12=S.T. Lounge - MAM
TTITLE13=Half Forgotten Daydreams - Kokin Gumi
TTITLE14=Gone But Not Forgotten - Jeff Golub
TTITLE15=Besame Mucho - Montserrat
TTITLE16=Nexus - Vanguarde
TTITLE17=No Flash, Please - Eletrobossa
EXTD=YEAR: 2009
EXTT0=
EXTT1=
EXTT2=
EXTT3=
EXTT4=
EXTT5=
EXTT6=
EXTT7=
EXTT8=
EXTT9=
EXTT10=
EXTT11=
EXTT12=
EXTT13=
EXTT14=
EXTT15=
EXTT16=
EXTT17=
PLAYORDER=
